<svg version="1.2" xmlns="http://www.w3.org/2000/svg" viewBox="0 0 181 61" width="181" height="61">
	<title>VISA-svg</title>
	<style>
		.s0 { fill: #ffffff } 
	</style>
	<g id="Layer">
	</g>
	<g id="Layer">
		<g id="Layer">
			<path id="Layer" fill-rule="evenodd" class="s0" d="m195.4-62.2c14.1 0 25.6 11.6 25.6 25.6v133.2c0 14-11.5 25.6-25.6 25.6h-204.8c-14.1 0-25.6-11.6-25.6-25.6v-133.2c0-14 11.5-25.6 25.6-25.6zm-220.2 25.6v133.2c0 8.5 6.9 15.3 15.4 15.3h204.8c8.5 0 15.4-6.8 15.4-15.3v-133.2c0-8.5-6.9-15.3-15.4-15.3h-204.8c-8.5 0-15.4 6.8-15.4 15.3zm156 40.8l-2.5 12.5c0 0-5.5-3.7-10.4-3.7-7.5 0-10.1 2.5-10.1 5.8 0 6.5 20.8 7.6 20.8 22.1 0 12-14.9 20.3-25.8 20.3-10.8 0-16.4-3.2-16.4-3.2l2.7-12.2c0 0 5.6 3.4 14.4 3.4 8.7 0 9.9-3.7 9.9-5.3 0-9.2-20.8-6.8-20.8-24.8 0-9.9 8.1-17.7 24-17.7 7 0 14.2 2.8 14.2 2.8zm-65.7-1.7l-23.1 56.9h-16.6l-12.2-46c0 0 12.8 6.5 20.7 24.1 0.3 2.2 1.3 5.6 1.3 5.6l13.7-40.6zm21.3 0l-9.1 56.9h-15.2l8.9-56.9zm82.6 0l11.7 56.9h-13.8l-1.6-8.1h-18.9l-3 8.1h-15l24.8-56.9zm-149 0.1c6 0 8.2 5.6 8.2 5.6l5.1 26c-6.9-22.4-36.7-31.6-36.7-31.6zm130.6 37.8h12.5l-4.2-21.4z"/>
		</g>
	</g>
</svg>